#N canvas 499 16 937 461 12;
#X declare -path ../;
#X declare -path Sf;
#N canvas 156 259 450 300 dispatch 0;
#X obj 106 35 inlet;
#X obj 106 57 route cue calibration, f 22;
#X obj 106 171 send antescofo-labels;
#X obj 167 143 send antescofo_calib;
#X obj 229 119 outlet;
#X obj 253 95 send ante_pos;
#X obj 362 56 r print;
#X obj 360 90 print;
#X obj 50 210 print labels;
#X obj 240 220 print antescofo_pos;
#X connect 0 0 1 0;
#X connect 1 0 2 0;
#X connect 1 0 8 0;
#X connect 1 1 3 0;
#X connect 1 2 4 0;
#X connect 1 2 5 0;
#X connect 1 2 9 0;
#X connect 6 0 7 0;
#X restore 22 308 pd dispatch;
#X obj 100 261 nbx 5 14 -1e+37 1e+37 0 0 empty empty Real-time_Tempo_BPM
0 25 0 10 -259565 -1 -1 120 256;
#X symbolatom 177 195 20 0 0 3 Event_Label - -;
#X obj 255 158 nbx 5 14 -1e+37 1e+37 0 0 empty empty Position_in_beats
0 25 0 10 -228856 -1 -1 0 256;
#X obj 22 331 nbx 5 14 -1e+37 1e+37 0 0 empty empty Event_Number 0
25 0 10 -228856 -1 -1 1 256;
#X msg 121 96 incomingosc \$1;
#X obj 121 65 tgl 15 0 empty empty empty 17 7 0 10 -262144 -1 -1 0
1;
#X obj 21 9 loadbang;
#X msg 21 37 suivi 0;
#X obj 100 237 s antetempo;
#X obj 21 128 antescofo~ @outlets beatnum, f 45;
#X msg 237 97 ascograph on;
#X obj 25 381 declare -path ../;
#X obj 25 407 declare -path Sf;
#N canvas 714 515 253 329 sfplayer 0;
#X msg 121 144 0;
#X msg 122 166 print;
#X msg 50 122 start;
#X msg 50 145 stop;
#X msg 121 123 1;
#X obj 18 10 r player;
#X obj 50 290 send~ src1;
#X obj 50 200 readsf~ 1 1e+06;
#X msg 50 80 open Sf/pinkChurchy.wav;
#X obj 18 40 t a b;
#X obj 50 260 *~ 0.7;
#X obj 89 230 r src_gain;
#X connect 0 0 7 0;
#X connect 1 0 7 0;
#X connect 2 0 7 0;
#X connect 3 0 7 0;
#X connect 4 0 7 0;
#X connect 5 0 9 0;
#X connect 7 0 10 0;
#X connect 8 0 7 0;
#X connect 9 0 7 0;
#X connect 9 1 8 0;
#X connect 10 0 6 0;
#X connect 11 0 10 1;
#X restore 380 372 pd sfplayer;
#X msg 380 396 \; pd dsp 1, f 13;
#N canvas 567 579 558 231 antescofo_cmds 0;
#X msg 164 18 actions on;
#X msg 164 40 actions off;
#X msg 21 13 nextevent;
#X msg 32 37 nextlabel;
#X msg 42 53 nextaction;
#X msg 52 74 previousevent;
#X msg 59 96 previouslabel;
#X msg 65 121 killall;
#X symbolatom 164 70 10 0 0 0 - - -;
#X msg 165 95 gotolabel \$1;
#X msg 121 146 play;
#X msg 78 144 stop;
#X msg 163 145 tempo \$1;
#X obj 163 126 nbx 5 14 -1e+37 1e+37 0 0 empty empty empty 0 -8 0 10
-191407 -1 -1 0 256;
#X obj 23 194 s antescofo_;
#X msg 404 109 start;
#X obj 304 21 key;
#X obj 304 51 sel 32 10, f 29;
#X msg 304 109 nextlabel;
#X msg 457 109 reloadscore;
#X obj 404 81 t b b, f 8;
#X obj 304 146 s antescofo_, f 18;
#X connect 2 0 14 0;
#X connect 3 0 14 0;
#X connect 4 0 14 0;
#X connect 5 0 14 0;
#X connect 6 0 14 0;
#X connect 7 0 14 0;
#X connect 8 0 9 0;
#X connect 9 0 14 0;
#X connect 10 0 14 0;
#X connect 11 0 14 0;
#X connect 12 0 14 0;
#X connect 13 0 12 0;
#X connect 15 0 21 0;
#X connect 16 0 17 0;
#X connect 17 0 18 0;
#X connect 17 1 20 0;
#X connect 18 0 21 0;
#X connect 19 0 21 0;
#X connect 20 0 15 0;
#X connect 20 1 19 0;
#X restore 20 153 pd antescofo_cmds;
#X msg 21 63 info;
#X obj 822 125 bng 15 250 50 0 empty empty empty 17 7 0 10 -191407
-1 -1;
#X obj 822 142 openpanel;
#X msg 822 165 score \$1;
#X msg 430 291 nextlabel;
#X obj 381 145 hradio 15 1 0 8 empty empty empty 0 -8 0 10 -262144
-1 -1 4;
#X obj 381 98 loadbang;
#X msg 381 120 0;
#X obj 21 96 r antescofo_;
#X text 147 63 > Turn incoming OSC ON to receive commands from Atom
or Sublime, f 64;
#N canvas 731 115 610 455 Trajectory_Scores 0;
#X obj 15 9 inlet;
#X obj 15 51 route 0 1 2 3 4 5 6 7, f 53;
#X msg 14 335 score Spat_Scores_Pure_Data/01_demo_rectilinear_trajectories.asco.txt
;
#X obj 15 420 s antescofo_;
#X msg 61 268 score Spat_Scores_Pure_Data/traj_ellipse.asco.txt;
#X msg 109 209 score Spat_Scores_Pure_Data/traj_sin.asco.txt;
#X msg 154 149 score Spat_Scores_Pure_Data/traj_parametric_magic_plot.asco.txt
;
#X msg 200 93 score Spat_Scores_Pure_Data/03_personne_en_vue?.asco.txt
;
#X connect 0 0 1 0;
#X connect 1 0 2 0;
#X connect 1 1 4 0;
#X connect 1 2 5 0;
#X connect 1 3 6 0;
#X connect 1 4 7 0;
#X connect 2 0 3 0;
#X connect 4 0 3 0;
#X connect 5 0 3 0;
#X connect 6 0 3 0;
#X connect 7 0 3 0;
#X restore 381 166 pd Trajectory_Scores;
#N canvas 531 70 710 252 Trajectory_OSC_Routing 0;
#X msg 233 39 paths;
#X obj 17 80 mrpeach/routeOSC /source/1/xy /source/2/xy /source/3/xy
/source/4/xy, f 96;
#X obj 17 51 mrpeach/unpackOSC;
#X obj 17 140 unpack f f f, f 21;
#X obj 184 140 unpack f f f, f 19;
#X obj 351 140 unpack f f f, f 19;
#X obj 518 140 unpack f f f, f 19;
#X obj 351 170 s x-src3;
#X obj 416 170 s y-src3;
#X obj 249 170 s y-src2;
#X obj 184 170 s x-src2;
#X obj 89 170 s y-src1;
#X obj 17 170 s x-src1;
#X obj 518 170 s x-src4;
#X obj 583 170 s y-src4;
#X obj 17 110 print osc_1;
#X obj 184 110 print osc_2;
#X obj 351 110 print osc_3;
#X obj 518 110 print osc_4;
#X obj 17 20 mrpeach/udpreceive 4072;
#N canvas 517 53 942 781 interface_coordinates_scale 0;
#X text 40 -41 1.x-offset;
#X text 40 -20 2.y-offset;
#X msg 40 235 pos \$1 \$2;
#X obj 40 200 pack;
#X obj 116 169 t b a;
#X obj 40 140 nbx 3 14 -1e+37 1e+37 0 0 \$0-dummy \$0-xlabel empty
0 -8 0 12 -262144 -1 -1 130 256;
#X obj 120 140 nbx 3 14 -1e+37 1e+37 0 0 \$0-dummy \$0-ylabel empty
0 -8 0 12 -262144 -1 -1 130 256;
#X obj 40 80 * 100;
#X obj 40 270 s $r-src1;
#X msg 271 230 pos \$1 \$2;
#X obj 271 195 pack;
#X obj 347 169 t b a;
#X obj 271 140 nbx 3 14 -1e+37 1e+37 0 0 \$0-dummy \$0-xlabel empty
0 -8 0 12 -262144 -1 -1 130 256;
#X obj 347 140 nbx 3 14 -1e+37 1e+37 0 0 \$0-dummy \$0-ylabel empty
0 -8 0 12 -262144 -1 -1 279.468 256;
#X obj 271 80 * 100;
#X msg 499 230 pos \$1 \$2;
#X obj 499 195 pack;
#X obj 577 169 t b a;
#X obj 499 140 nbx 3 14 -1e+37 1e+37 0 0 \$0-dummy \$0-xlabel empty
0 -8 0 12 -262144 -1 -1 330 256;
#X obj 577 140 nbx 3 14 -1e+37 1e+37 0 0 \$0-dummy \$0-ylabel empty
0 -8 0 12 -262144 -1 -1 227.178 256;
#X obj 499 80 * 100;
#X msg 719 230 pos \$1 \$2;
#X obj 719 195 pack;
#X obj 797 169 t b a;
#X obj 719 140 nbx 3 14 -1e+37 1e+37 0 0 \$0-dummy \$0-xlabel empty
0 -8 0 12 -262144 -1 -1 230 256;
#X obj 797 140 nbx 3 14 -1e+37 1e+37 0 0 \$0-dummy \$0-ylabel empty
0 -8 0 12 -262144 -1 -1 130 256;
#X obj 719 80 * 100;
#X obj 40 50 r x-src1;
#X obj 116 50 r y-src1;
#X obj 271 50 r x-src2;
#X obj 347 50 r y-src2;
#X obj 499 50 r x-src3;
#X obj 577 50 r y-src3;
#X obj 719 50 r x-src4;
#X obj 799 50 r y-src4;
#X obj 271 270 s $r-src2;
#X obj 719 270 s $r-src4;
#X obj 499 270 s $r-src3;
#X obj 116 80 * -100;
#X obj 349 80 * -100;
#X obj 577 80 * -100;
#X obj 797 80 * -100;
#X obj 41 473 r from_src1;
#X floatatom 41 543 4 0 0 0 - - -;
#X floatatom 115 543 4 0 0 0 - - -;
#X obj 41 513 unpack, f 11;
#X obj 41 389 metro 100;
#X obj 41 369 tgl 15 1 empty empty empty 20 8 0 10 -262144 -1 -1 1
1;
#X msg 41 411 get_pos;
#X obj 41 433 send $r-src1;
#X floatatom 41 643 4 0 0 0 - - -;
#X floatatom 115 643 4 0 0 0 - - -;
#X obj 41 683 s src1-x;
#X obj 115 683 s src1-y;
#X floatatom 271 543 4 0 0 0 - - -;
#X floatatom 345 543 4 0 0 0 - - -;
#X obj 271 513 unpack, f 11;
#X obj 271 389 metro 100;
#X obj 271 369 tgl 15 1 empty empty empty 20 8 0 10 -262144 -1 -1 1
1;
#X msg 271 411 get_pos;
#X floatatom 271 643 4 0 0 0 - - -;
#X floatatom 345 643 4 0 0 0 - - -;
#X obj 271 433 send $r-src2;
#X obj 271 473 r from_src2;
#X obj 271 683 s src2-x;
#X obj 345 683 s src2-y;
#X floatatom 501 543 4 0 0 0 - - -;
#X floatatom 575 543 4 0 0 0 - - -;
#X obj 501 513 unpack, f 11;
#X obj 501 389 metro 100;
#X obj 501 369 tgl 15 1 empty empty empty 20 8 0 10 -262144 -1 -1 1
1;
#X msg 501 411 get_pos;
#X floatatom 501 643 4 0 0 0 - - -;
#X floatatom 575 643 4 0 0 0 - - -;
#X obj 501 433 send $r-src3;
#X obj 501 473 r from_src3;
#X obj 501 683 s src3-x;
#X obj 575 683 s src3-y;
#X floatatom 721 543 4 0 0 0 - - -;
#X floatatom 795 543 4 0 0 0 - - -;
#X obj 721 513 unpack, f 11;
#X obj 721 389 metro 100;
#X obj 721 369 tgl 15 1 empty empty empty 20 8 0 10 -262144 -1 -1 1
1;
#X msg 721 411 get_pos;
#X floatatom 721 643 4 0 0 0 - - -;
#X floatatom 795 643 4 0 0 0 - - -;
#X obj 721 433 send $r-src4;
#X obj 721 473 r from_src4;
#X obj 721 683 s src4-x;
#X obj 795 683 s src4-y;
#X text 40 0 scale incoming coordinates to the canvas objects coordinates
:, f 72;
#X text 40 320 scale the canvas objects coordinates to gain envelop
:, f 72;
#X obj 40 110 + 230;
#X obj 270 110 + 230;
#X obj 500 110 + 230;
#X obj 720 110 + 230;
#X text 57 588 implement a scale object and the transfer function to
match the gain env.:, f 72;
#X obj 800 111 + 230;
#X obj 577 111 + 230;
#X obj 350 110 + 230;
#X obj 121 110 + 230;
#X connect 2 0 8 0;
#X connect 3 0 2 0;
#X connect 4 0 3 0;
#X connect 4 1 3 1;
#X connect 5 0 3 0;
#X connect 6 0 4 0;
#X connect 7 0 92 0;
#X connect 9 0 35 0;
#X connect 10 0 9 0;
#X connect 11 0 10 0;
#X connect 11 1 10 1;
#X connect 12 0 10 0;
#X connect 13 0 11 0;
#X connect 14 0 93 0;
#X connect 15 0 37 0;
#X connect 16 0 15 0;
#X connect 17 0 16 0;
#X connect 17 1 16 1;
#X connect 18 0 16 0;
#X connect 19 0 17 0;
#X connect 20 0 94 0;
#X connect 21 0 36 0;
#X connect 22 0 21 0;
#X connect 23 0 22 0;
#X connect 23 1 22 1;
#X connect 24 0 22 0;
#X connect 25 0 23 0;
#X connect 26 0 95 0;
#X connect 27 0 7 0;
#X connect 28 0 38 0;
#X connect 29 0 14 0;
#X connect 30 0 39 0;
#X connect 31 0 20 0;
#X connect 32 0 40 0;
#X connect 33 0 26 0;
#X connect 34 0 41 0;
#X connect 38 0 100 0;
#X connect 39 0 99 0;
#X connect 40 0 98 0;
#X connect 41 0 97 0;
#X connect 42 0 45 0;
#X connect 45 0 43 0;
#X connect 45 1 44 0;
#X connect 46 0 48 0;
#X connect 47 0 46 0;
#X connect 48 0 49 0;
#X connect 50 0 52 0;
#X connect 51 0 53 0;
#X connect 56 0 54 0;
#X connect 56 1 55 0;
#X connect 57 0 59 0;
#X connect 58 0 57 0;
#X connect 59 0 62 0;
#X connect 60 0 64 0;
#X connect 61 0 65 0;
#X connect 63 0 56 0;
#X connect 68 0 66 0;
#X connect 68 1 67 0;
#X connect 69 0 71 0;
#X connect 70 0 69 0;
#X connect 71 0 74 0;
#X connect 72 0 76 0;
#X connect 73 0 77 0;
#X connect 75 0 68 0;
#X connect 80 0 78 0;
#X connect 80 1 79 0;
#X connect 81 0 83 0;
#X connect 82 0 81 0;
#X connect 83 0 86 0;
#X connect 84 0 88 0;
#X connect 85 0 89 0;
#X connect 87 0 80 0;
#X connect 92 0 5 0;
#X connect 93 0 12 0;
#X connect 94 0 18 0;
#X connect 95 0 24 0;
#X connect 97 0 25 0;
#X connect 98 0 19 0;
#X connect 99 0 13 0;
#X connect 100 0 6 0;
#X restore 17 213 pd interface_coordinates_scale;
#X obj 555 17 r print_antescofo;
#X obj 555 43 print antescofo;
#X connect 0 0 1 0;
#X connect 1 0 3 0;
#X connect 1 0 15 0;
#X connect 1 1 4 0;
#X connect 1 1 16 0;
#X connect 1 2 5 0;
#X connect 1 2 17 0;
#X connect 1 3 6 0;
#X connect 1 3 18 0;
#X connect 2 0 1 0;
#X connect 3 0 12 0;
#X connect 3 1 11 0;
#X connect 4 0 10 0;
#X connect 4 1 9 0;
#X connect 5 0 7 0;
#X connect 5 1 8 0;
#X connect 6 0 13 0;
#X connect 6 1 14 0;
#X connect 19 0 2 0;
#X connect 21 0 22 0;
#X restore 380 239 pd Trajectory_OSC_Routing;
#N canvas 7 345 517 506 Trajectory_interface 1;
#X obj -1 -11 cnv 50 500 500 empty empty empty 20 12 0 14 -13330 -66577
0;
#X obj 130 130 cnv 25 25 25 from_src1 $r-src1 s1 5 10 1 14 -92330 -1
0;
#X obj 130 279 cnv 25 25 25 from_src2 $r-src2 s2 5 10 1 14 -181144
-1 0;
#X obj 330 227 cnv 25 25 25 from_src3 $r-src3 s3 5 10 1 14 -3265 -1
0;
#X obj 230 130 cnv 25 25 25 from_src4 $r-src4 s4 5 10 1 14 -261313
-1 0;
#X obj 4 6 vu 15 120 front-left-vu empty -1 -8 0 10 -33289 -1 1 0;
#X obj 452 7 vu 15 120 front-right-vu empty -1 -8 0 10 -33289 -1 1
0;
#X obj 452 361 vu 15 120 rear-right-vu empty -1 -8 0 10 -33289 -1 1
0;
#X obj 4 361 vu 15 120 rear-left-vu empty -1 -8 0 10 -33289 -1 1 0
;
#X coords 0 506 1 505 85 60 0;
#X restore 380 215 pd Trajectory_interface;
#X obj 822 190 s antescofo_, f 13;
#X obj 381 320 s antescofo_, f 13;
#X msg 381 290 start;
#X text 498 398 > implement the spat engine that suits you retrieve
and scale the sources' coordinates;
#X text 558 214 > open graphical interface to visualize trajectories
;
#X text 524 287 > hit enter to initialize and compile some functions
\, > spacebar to play next label or start > next label to go through
some spatial processes :;
#X text 535 143 > choose a score > or load one from the score folder
;
#X connect 0 0 4 0;
#X connect 5 0 10 0;
#X connect 6 0 5 0;
#X connect 7 0 8 0;
#X connect 8 0 10 0;
#X connect 10 0 0 0;
#X connect 10 1 1 0;
#X connect 10 1 9 0;
#X connect 10 2 2 0;
#X connect 10 3 3 0;
#X connect 11 0 10 0;
#X connect 17 0 10 0;
#X connect 18 0 19 0;
#X connect 19 0 20 0;
#X connect 20 0 30 0;
#X connect 21 0 31 0;
#X connect 22 0 27 0;
#X connect 23 0 24 0;
#X connect 24 0 22 0;
#X connect 25 0 10 0;
#X connect 32 0 31 0;
